# xmcd CD database file
#
# Track frame offsets:
#	150
#	14435
#	37666
#	57720
#	75083
#	90073
#	105017
#	122836
#	147695
#	163649
#	184031
#	202231
#	217623
#	235723
#
# Disc length: 3444 seconds
#
# Revision: 0
# Processed by: cddbd v1.5.2PL0 Copyright (c) Steve Scherf et al.
# Submitted via: CDex 1.79
#
DISCID=a60d720e
DTITLE=Texas Renegade - Surviving The Flood
DYEAR=2014
DGENRE=Country
TTITLE0=The End
TTITLE1=Unsigned
TTITLE2=Another Year
TTITLE3=Walking Away
TTITLE4=American Sin
TTITLE5=Long Way Down
TTITLE6=Little Girls
TTITLE7=Virginia White
TTITLE8=Drive
TTITLE9=Gettysburg (Redux)
TTITLE10=Waiting On The Drugs
TTITLE11=18 Time Machine
TTITLE12=Satellite Sun
TTITLE13=Don't Get Too Low (featuring Jeff Strahan)
EXTD=YEAR: 2014
EXTT0=
EXTT1=
EXTT2=
EXTT3=
EXTT4=
EXTT5=
EXTT6=
EXTT7=
EXTT8=
EXTT9=
EXTT10=
EXTT11=
EXTT12=
EXTT13=
PLAYORDER=
